<svg width="42" height="49" viewBox="0 0 42 49" fill="none" xmlns="http://www.w3.org/2000/svg">
<path d="M28.8652 0.226562C31.2473 0.347562 33.1416 2.31733 33.1416 4.72949V11.9121H42.001V13.5957H41.9736C41.9803 13.6385 41.9863 13.6819 41.9863 13.7266V39.8428C41.9861 44.4908 38.2174 48.2587 33.5693 48.2588H9.19141C4.54339 48.2586 0.775641 44.4908 0.775391 39.8428V13.7266C0.775409 13.6821 0.778485 13.6383 0.785156 13.5957L0.773438 13.5967V11.9131L9.63184 11.9121V4.72949C9.63186 2.31737 11.5262 0.347622 13.9082 0.226562L14.1406 0.220703H28.6328L28.8652 0.226562ZM2.44727 13.5957C2.45396 13.6384 2.45897 13.682 2.45898 13.7266V38.1592C2.45923 42.8072 6.22699 46.575 10.875 46.5752H31.8857C36.5338 46.5751 40.3025 42.8072 40.3027 38.1592V13.7266C40.3028 13.682 40.3068 13.6384 40.3135 13.5957H2.44727ZM14.1406 1.90625C12.5813 1.90636 11.3174 3.17018 11.3174 4.72949V11.8564H31.4561V4.72949C31.456 3.17015 30.1922 1.90629 28.6328 1.90625H14.1406Z" fill="#212121"/>
</svg>
