<svg width="78" height="110" viewBox="0 0 78 110" fill="none" xmlns="http://www.w3.org/2000/svg">
<path d="M76.6191 38.5586C77.38 38.5588 77.9977 39.1757 77.998 39.9365V95.8096C77.998 102.383 73.3956 107.88 67.2383 109.259C66.9972 109.466 66.6847 109.594 66.3418 109.594H11.6562C11.3126 109.594 10.9992 109.467 10.7578 109.259C4.60108 107.88 0 102.382 0 95.8096V39.9365C0.000387732 39.1756 0.617866 38.5586 1.37891 38.5586C2.1396 38.559 2.75645 39.1758 2.75684 39.9365V93.0527C2.75684 100.665 8.92854 106.837 16.541 106.837H61.457C69.0693 106.837 75.2412 100.665 75.2412 93.0527V39.9365C75.2416 39.1756 75.8582 38.5587 76.6191 38.5586Z" fill="white"/>
<path d="M1.41016 39.5684L38.9863 2.01367L76.5914 39.5706" stroke="white" stroke-width="2.76" stroke-linecap="round"/>
</svg>
