<svg width="276" height="276" viewBox="0 0 276 276" fill="none" xmlns="http://www.w3.org/2000/svg">
<g opacity="0.5">
<circle cx="138.003" cy="138.001" r="34.6231" stroke="#212121" stroke-width="2.67"/>
<circle cx="138.924" cy="137.076" r="68.835" stroke="#212121" stroke-width="2.67"/>
<circle cx="137.999" cy="138.001" r="103.047" stroke="#212121" stroke-width="2.67"/>
<circle cx="138" cy="138" r="136.335" stroke="#212121" stroke-width="2.67"/>
</g>
<circle cx="166.079" cy="74.8195" r="10.8" fill="#D4EDCB"/>
<circle cx="111.934" cy="112.472" r="10.8" transform="rotate(-154.107 111.934 112.472)" fill="#FF3E3E"/>
<circle cx="137.858" cy="104.369" r="10.8" transform="rotate(-154.107 137.858 104.369)" fill="#FFC556"/>
<circle cx="171.336" cy="137.605" r="10.8" transform="rotate(-154.107 171.336 137.605)" fill="#FF5C00"/>
<circle cx="162.692" cy="112.472" r="10.8" transform="rotate(-154.107 162.692 112.472)" fill="#9FFFFF"/>
<circle cx="10.8" cy="10.8" r="10.8" transform="matrix(-0.899611 0.436692 0.436692 0.899611 92.6328 210.904)" fill="#B3B694"/>
<circle cx="184.292" cy="252.873" r="10.8" transform="rotate(25.893 184.292 252.873)" fill="#EBA6BB"/>
<circle cx="201.181" cy="112.624" r="10.8" fill="#DAC3A1"/>
<circle cx="241.685" cy="68.884" r="10.8" fill="#DDD7C1"/>
<circle cx="10.8" cy="10.8" r="10.8" transform="matrix(1 0 0 -1 152.045 171.484)" fill="#FF427A"/>
<circle cx="10.8" cy="10.8" r="10.8" transform="matrix(1 0 0 -1 127.203 182.281)" fill="#A9A9A9"/>
<circle cx="10.8" cy="10.8" r="10.8" transform="matrix(1 0 0 -1 101.281 171.482)" fill="#909747"/>
<circle cx="10.8" cy="10.8" r="10.8" transform="matrix(1 0 0 -1 93.7227 148.805)" fill="#7C7BC8"/>
<circle cx="222.786" cy="193.079" r="10.8" transform="rotate(180 222.786 193.079)" fill="#FF7874"/>
<circle cx="10.8" cy="10.8" r="10.8" transform="matrix(-1 0 0 1 96.9629 110.461)" fill="#D85E76"/>
<circle cx="10.8" cy="10.8" r="10.8" transform="matrix(-1 0 0 1 98.584 38.0957)" fill="#FF8C72"/>
<circle cx="10.8" cy="10.8" r="10.8" transform="matrix(-1 0 0 1 24.6016 76.4434)" fill="#D4A0B9"/>
</svg>
