<svg width="78" height="96" viewBox="0 0 78 96" fill="none" xmlns="http://www.w3.org/2000/svg">
<path d="M75.788 48.0056L1.91602 1.77028V93.8838L75.788 48.0056Z" fill="#212121"/>
<path d="M1.37988 0.171875C1.42325 0.171884 1.46613 0.173932 1.50844 0.177919C1.85242 0.210332 2.19698 0.324141 2.49023 0.506836V0.506836L76.5098 46.6406V46.6406C76.603 46.6988 76.6967 46.7568 76.7895 46.8157C76.9722 46.9317 77.1297 47.0968 77.2422 47.3066C77.5798 47.9365 77.3956 48.7421 76.8379 49.1719L76.7227 49.252L2.16309 95.6279C1.51593 96.0305 0.699861 95.8124 0.339844 95.1406C0.31112 95.087 0.286184 95.0322 0.264937 94.9764C0.136104 94.6382 0.0434111 94.2722 0.00683594 93.9121V93.9121L0 93.7715V1.55176C3.09231e-08 0.789605 0.61773 0.171875 1.37988 0.171875ZM2.75977 77.6155C2.75977 83.8912 9.65609 87.7232 14.9851 84.4086L62.5924 54.797C67.6227 51.6682 67.626 44.3479 62.5986 41.2146L14.9912 11.5432C9.6625 8.22206 2.75977 12.0535 2.75977 18.3325V77.6155Z" fill="white"/>
</svg>
