<svg width="78" height="96" viewBox="0 0 78 96" fill="none" xmlns="http://www.w3.org/2000/svg">
<path d="M76.1669 48.0594L2.29492 1.82399V93.9375L76.1669 48.0594Z" fill="#FEA153"/>
<path d="M1.75879 0.225586C1.80216 0.225595 1.84504 0.227643 1.88734 0.23163C2.23133 0.264043 2.57589 0.377852 2.86914 0.560547V0.560547L76.8887 46.6943V46.6943C76.9819 46.7525 77.0756 46.8105 77.1684 46.8694C77.3511 46.9854 77.5086 47.1505 77.6211 47.3604C77.9587 47.9903 77.7746 48.7958 77.2168 49.2256L77.1016 49.3057L2.54199 95.6816C1.89483 96.0842 1.07877 95.8661 0.71875 95.1943C0.690027 95.1407 0.66509 95.0859 0.643843 95.0301C0.515011 94.6919 0.422317 94.3259 0.385742 93.9658V93.9658L0.378906 93.8252V1.60547C0.378906 0.843316 0.996636 0.225586 1.75879 0.225586ZM3.13867 77.6692C3.13867 83.9449 10.035 87.7769 15.364 84.4623L62.9713 54.8507C68.0016 51.722 68.0049 44.4016 62.9775 41.2683L15.3701 11.5969C10.0414 8.27578 3.13867 12.1073 3.13867 18.3862V77.6692Z" fill="#212121"/>
</svg>
