<svg width="65" height="80" viewBox="0 0 65 80" fill="none" xmlns="http://www.w3.org/2000/svg">
<path d="M1.38086 0C1.41588 1.2125e-05 1.45058 0.00136518 1.48492 0.00400079C1.80911 0.0288824 2.13317 0.132837 2.40918 0.304688L63.2842 38.2461C63.3381 38.2831 63.3959 38.3141 63.4533 38.3455C63.6673 38.4622 63.8521 38.6432 63.9795 38.8809C64.3168 39.5107 64.1329 40.3154 63.5752 40.7451L63.459 40.8262L2.14062 78.9658C1.49345 79.3684 0.67641 79.1503 0.316406 78.4785C0.292059 78.433 0.270494 78.3867 0.251626 78.3396C0.127704 78.0302 0.0405782 77.6958 0.00683594 77.3643L0 77.2227L0.000976562 1.37988C0.000976593 0.61773 0.618706 -3.58914e-08 1.38086 0ZM2.75977 60.9404C2.75977 67.2162 9.65621 71.0482 14.9852 67.7335L49.3223 46.3752C54.3524 43.2463 54.3557 35.9261 49.3283 32.7928L14.9913 11.3919C9.66253 8.07076 2.75977 11.9022 2.75977 18.1812V60.9404Z" fill="#212121"/>
</svg>
