<svg width="78" height="97" viewBox="0 0 78 97" fill="none" xmlns="http://www.w3.org/2000/svg">
<path d="M56.0088 0.416016C59.9102 0.613788 63.0135 3.8395 63.0137 7.79004V24.6455H77.998V83.2148C77.998 89.7881 73.3956 95.2853 67.2383 96.6641C66.9972 96.8714 66.6847 96.9988 66.3418 96.999H11.6562C11.3126 96.999 10.9992 96.8721 10.7578 96.6641C4.60108 95.2848 0 89.7877 0 83.2148V24.6455H15.3691V7.79004C15.3693 3.83957 18.4717 0.613878 22.373 0.416016L22.7529 0.40625H55.6289L56.0088 0.416016ZM63.0137 27.4033V27.4043H15.3691V27.4033H2.75684V80.458C2.75684 88.0705 8.92854 94.2422 16.541 94.2422H61.457C69.0693 94.242 75.2412 88.0704 75.2412 80.458V27.4033H63.0137ZM22.7529 3.16602C20.1994 3.16617 18.1291 5.23646 18.1289 7.79004V24.6436H60.2529V7.79004C60.2528 5.23648 58.1825 3.16619 55.6289 3.16602H22.7529Z" fill="#212121"/>
</svg>
