<svg width="64" height="79" viewBox="0 0 64 79" fill="none" xmlns="http://www.w3.org/2000/svg">
<path d="M43.916 0.00976562C47.8176 0.207391 50.9198 3.43316 50.9199 7.38379V19.0586H63.0303V21.8164H63.0107C63.0218 21.8868 63.0302 21.9587 63.0303 22.0322V64.8027C63.0301 70.4779 59.5993 75.3508 54.6992 77.4639C54.579 78.1022 54.0199 78.5856 53.3467 78.5859H9.68457C9.01099 78.5859 8.45033 78.1025 8.33008 77.4639C3.43041 75.3506 0.00021158 70.4776 0 64.8027V22.0322C2.54559e-05 21.9588 0.00648257 21.8867 0.0175781 21.8164H0V19.0586H12.4189V7.38379C12.4191 3.43344 15.5217 0.207809 19.4229 0.00976562L19.8027 0H43.5361L43.916 0.00976562ZM2.7373 21.8164C2.74848 21.8871 2.75684 21.9594 2.75684 22.0332V62.0459C2.75712 69.6581 8.92871 75.8291 16.541 75.8291H46.4902C54.1022 75.8287 60.2732 69.6579 60.2734 62.0459V22.0332C60.2734 21.9594 60.2808 21.8871 60.292 21.8164H2.7373ZM19.8027 2.75977C17.2493 2.76012 15.1789 4.83033 15.1787 7.38379V19.0566H48.1602V7.38379C48.16 4.83011 46.0898 2.75977 43.5361 2.75977H19.8027Z" fill="#212121"/>
</svg>
